<svg width="391" height="209" viewBox="0 0 391 209" fill="none" xmlns="http://www.w3.org/2000/svg">
<path d="M149.479 40L152.479 172" stroke="white" stroke-width="4" stroke-linecap="round"/>
<rect x="132.508" y="142.795" width="32.7621" height="103.426" rx="16.3811" transform="rotate(126.362 132.508 142.795)" stroke="white" stroke-width="4"/>
<rect x="116.653" y="50.7047" width="33.3764" height="97.6969" rx="16.6882" transform="rotate(62.0105 116.653 50.7047)" stroke="white" stroke-width="4"/>
<rect x="93.479" y="56" width="33" height="107" rx="16.5" stroke="white" stroke-width="4"/>
<path d="M177.539 125C174.459 125 172.919 123.46 172.919 120.38V55.04C172.919 51.96 174.459 50.42 177.539 50.42H204.049C213.619 50.42 220.659 52.6933 225.169 57.24C229.716 61.75 231.989 68.79 231.989 78.36V97.06C231.989 106.63 229.734 113.688 225.224 118.235C220.751 122.745 213.692 125 204.049 125H177.539ZM182.159 115.76H204.049C208.742 115.76 212.446 115.192 215.159 114.055C217.909 112.882 219.852 110.938 220.989 108.225C222.162 105.475 222.749 101.753 222.749 97.06V78.36C222.749 73.7033 222.162 70.0183 220.989 67.305C219.852 64.555 217.909 62.5933 215.159 61.42C212.446 60.2467 208.742 59.66 204.049 59.66H182.159V115.76ZM303.126 122.47C301.146 124.817 298.983 124.927 296.636 122.8L259.566 89.8C256.963 87.5267 254.928 85.455 253.461 83.585C252.031 81.715 251.023 79.8267 250.436 77.92C249.85 75.9767 249.556 73.7767 249.556 71.32C249.556 65.1967 251.041 60.6317 254.011 57.625C256.981 54.5817 261.546 53.06 267.706 53.06H270.456C275.736 53.06 279.843 54.16 282.776 56.36C285.71 58.5233 287.58 61.86 288.386 66.37C288.57 67.9467 288.24 69.1567 287.396 70C286.59 70.8067 285.416 71.21 283.876 71.21C282.41 71.21 281.31 70.825 280.576 70.055C279.88 69.285 279.33 68.1667 278.926 66.7C278.486 64.94 277.625 63.7667 276.341 63.18C275.058 62.5933 273.096 62.3 270.456 62.3H267.706C264.26 62.3 261.913 62.905 260.666 64.115C259.42 65.2883 258.796 67.69 258.796 71.32C258.796 72.8233 258.961 74.125 259.291 75.225C259.658 76.2883 260.336 77.4067 261.326 78.58C262.316 79.7533 263.783 81.22 265.726 82.98L302.796 115.87C305.106 117.96 305.216 120.16 303.126 122.47ZM266.386 127.31C257.99 127.31 251.793 125.33 247.796 121.37C243.836 117.373 241.856 111.177 241.856 102.78C241.856 96.8767 242.81 92.0733 244.716 88.37C246.66 84.6667 249.63 81.99 253.626 80.34C255.056 79.7167 256.358 79.7533 257.531 80.45C258.705 81.1467 259.42 82.21 259.676 83.64C259.97 85.07 259.75 86.225 259.016 87.105C258.32 87.985 257.33 88.7367 256.046 89.36C254.25 90.3867 252.966 91.945 252.196 94.035C251.463 96.125 251.096 99.04 251.096 102.78C251.096 106.703 251.555 109.783 252.471 112.02C253.388 114.22 254.946 115.778 257.146 116.695C259.383 117.612 262.463 118.07 266.386 118.07H269.906C273.793 118.07 276.836 117.612 279.036 116.695C281.273 115.742 282.85 114.165 283.766 111.965C284.72 109.728 285.196 106.667 285.196 102.78V98.93C285.196 95.85 286.736 94.31 289.816 94.31C292.896 94.31 294.436 95.85 294.436 98.93V102.78C294.436 111.14 292.438 117.318 288.441 121.315C284.445 125.312 278.266 127.31 269.906 127.31H266.386ZM317.359 125C314.279 125 312.739 123.46 312.739 120.38V55.04C312.739 51.96 314.279 50.42 317.359 50.42C320.439 50.42 321.979 51.96 321.979 55.04V115.76H352.449C355.529 115.76 357.069 117.3 357.069 120.38C357.069 123.46 355.529 125 352.449 125H317.359Z" fill="white"/>
<path d="M174.24 163V143.364H177.257V163H174.24ZM175.774 140.091C175.186 140.091 174.679 139.891 174.253 139.49C173.836 139.089 173.627 138.608 173.627 138.045C173.627 137.483 173.836 137.001 174.253 136.601C174.679 136.2 175.186 136 175.774 136C176.363 136 176.865 136.2 177.283 136.601C177.709 137.001 177.922 137.483 177.922 138.045C177.922 138.608 177.709 139.089 177.283 139.49C176.865 139.891 176.363 140.091 175.774 140.091ZM184.72 151.188V163H181.703V143.364H184.618V146.432H184.874C185.334 145.435 186.033 144.634 186.97 144.028C187.908 143.415 189.118 143.108 190.601 143.108C191.931 143.108 193.094 143.381 194.091 143.926C195.088 144.463 195.864 145.281 196.418 146.381C196.972 147.472 197.249 148.852 197.249 150.523V163H194.232V150.727C194.232 149.185 193.831 147.983 193.03 147.122C192.229 146.253 191.129 145.818 189.732 145.818C188.769 145.818 187.908 146.027 187.149 146.445C186.399 146.862 185.807 147.472 185.372 148.273C184.938 149.074 184.72 150.045 184.72 151.188ZM215.591 147.761L212.881 148.528C212.71 148.077 212.459 147.638 212.127 147.212C211.803 146.777 211.359 146.419 210.797 146.138C210.234 145.857 209.514 145.716 208.636 145.716C207.435 145.716 206.433 145.993 205.632 146.547C204.84 147.092 204.443 147.787 204.443 148.631C204.443 149.381 204.716 149.973 205.261 150.408C205.807 150.842 206.659 151.205 207.818 151.494L210.733 152.21C212.489 152.636 213.797 153.288 214.658 154.166C215.519 155.036 215.949 156.156 215.949 157.528C215.949 158.653 215.625 159.659 214.977 160.545C214.338 161.432 213.443 162.131 212.293 162.642C211.142 163.153 209.804 163.409 208.279 163.409C206.276 163.409 204.618 162.974 203.306 162.105C201.993 161.236 201.162 159.966 200.813 158.295L203.676 157.58C203.949 158.636 204.465 159.429 205.223 159.957C205.99 160.486 206.992 160.75 208.227 160.75C209.634 160.75 210.75 160.452 211.577 159.855C212.412 159.25 212.83 158.526 212.83 157.682C212.83 157 212.591 156.429 212.114 155.969C211.636 155.5 210.904 155.151 209.915 154.92L206.642 154.153C204.844 153.727 203.523 153.067 202.679 152.172C201.844 151.268 201.426 150.139 201.426 148.784C201.426 147.676 201.737 146.696 202.359 145.844C202.99 144.991 203.847 144.322 204.929 143.837C206.02 143.351 207.256 143.108 208.636 143.108C210.58 143.108 212.105 143.534 213.213 144.386C214.33 145.239 215.122 146.364 215.591 147.761ZM227.95 143.364V145.92H217.774V143.364H227.95ZM220.74 138.659H223.757V157.375C223.757 158.227 223.881 158.866 224.128 159.293C224.384 159.71 224.707 159.991 225.099 160.136C225.5 160.273 225.922 160.341 226.365 160.341C226.697 160.341 226.97 160.324 227.183 160.29C227.396 160.247 227.567 160.213 227.695 160.188L228.308 162.898C228.104 162.974 227.818 163.051 227.452 163.128C227.085 163.213 226.621 163.256 226.058 163.256C225.206 163.256 224.371 163.072 223.553 162.706C222.743 162.339 222.07 161.781 221.533 161.031C221.004 160.281 220.74 159.335 220.74 158.193V138.659ZM237.187 163.46C235.943 163.46 234.813 163.226 233.799 162.757C232.785 162.28 231.98 161.594 231.383 160.699C230.786 159.795 230.488 158.705 230.488 157.426C230.488 156.301 230.71 155.389 231.153 154.69C231.596 153.983 232.188 153.429 232.93 153.028C233.671 152.628 234.49 152.33 235.385 152.134C236.288 151.929 237.196 151.767 238.108 151.648C239.301 151.494 240.268 151.379 241.01 151.303C241.76 151.217 242.305 151.077 242.646 150.881C242.995 150.685 243.17 150.344 243.17 149.858V149.756C243.17 148.494 242.825 147.514 242.135 146.815C241.453 146.116 240.417 145.767 239.028 145.767C237.588 145.767 236.458 146.082 235.64 146.713C234.822 147.344 234.247 148.017 233.914 148.733L231.051 147.71C231.562 146.517 232.244 145.588 233.096 144.923C233.957 144.25 234.894 143.781 235.909 143.517C236.931 143.244 237.937 143.108 238.926 143.108C239.556 143.108 240.281 143.185 241.099 143.338C241.926 143.483 242.723 143.786 243.49 144.246C244.265 144.706 244.909 145.401 245.42 146.33C245.931 147.259 246.187 148.503 246.187 150.062V163H243.17V160.341H243.017C242.812 160.767 242.471 161.223 241.994 161.709C241.517 162.195 240.882 162.608 240.089 162.949C239.296 163.29 238.329 163.46 237.187 163.46ZM237.647 160.75C238.84 160.75 239.846 160.516 240.664 160.047C241.491 159.578 242.113 158.973 242.531 158.232C242.957 157.49 243.17 156.71 243.17 155.892V153.131C243.042 153.284 242.761 153.425 242.326 153.553C241.9 153.672 241.406 153.778 240.843 153.872C240.289 153.957 239.748 154.034 239.22 154.102C238.7 154.162 238.278 154.213 237.954 154.256C237.17 154.358 236.437 154.524 235.755 154.754C235.082 154.976 234.536 155.312 234.119 155.764C233.71 156.207 233.505 156.812 233.505 157.58C233.505 158.628 233.893 159.42 234.669 159.957C235.453 160.486 236.446 160.75 237.647 160.75ZM253.631 136.818V163H250.614V136.818H253.631ZM261.094 136.818V163H258.077V136.818H261.094ZM271.318 163.46C270.074 163.46 268.945 163.226 267.93 162.757C266.916 162.28 266.111 161.594 265.514 160.699C264.918 159.795 264.619 158.705 264.619 157.426C264.619 156.301 264.841 155.389 265.284 154.69C265.727 153.983 266.32 153.429 267.061 153.028C267.803 152.628 268.621 152.33 269.516 152.134C270.419 151.929 271.327 151.767 272.239 151.648C273.432 151.494 274.399 151.379 275.141 151.303C275.891 151.217 276.436 151.077 276.777 150.881C277.126 150.685 277.301 150.344 277.301 149.858V149.756C277.301 148.494 276.956 147.514 276.266 146.815C275.584 146.116 274.548 145.767 273.159 145.767C271.719 145.767 270.589 146.082 269.771 146.713C268.953 147.344 268.378 148.017 268.045 148.733L265.182 147.71C265.693 146.517 266.375 145.588 267.227 144.923C268.088 144.25 269.026 143.781 270.04 143.517C271.062 143.244 272.068 143.108 273.057 143.108C273.687 143.108 274.412 143.185 275.23 143.338C276.057 143.483 276.854 143.786 277.621 144.246C278.396 144.706 279.04 145.401 279.551 146.33C280.062 147.259 280.318 148.503 280.318 150.062V163H277.301V160.341H277.148C276.943 160.767 276.602 161.223 276.125 161.709C275.648 162.195 275.013 162.608 274.22 162.949C273.428 163.29 272.46 163.46 271.318 163.46ZM271.778 160.75C272.972 160.75 273.977 160.516 274.795 160.047C275.622 159.578 276.244 158.973 276.662 158.232C277.088 157.49 277.301 156.71 277.301 155.892V153.131C277.173 153.284 276.892 153.425 276.457 153.553C276.031 153.672 275.537 153.778 274.974 153.872C274.42 153.957 273.879 154.034 273.351 154.102C272.831 154.162 272.409 154.213 272.085 154.256C271.301 154.358 270.568 154.524 269.886 154.754C269.213 154.976 268.668 155.312 268.25 155.764C267.841 156.207 267.636 156.812 267.636 157.58C267.636 158.628 268.024 159.42 268.8 159.957C269.584 160.486 270.577 160.75 271.778 160.75ZM293.285 143.364V145.92H283.109V143.364H293.285ZM286.074 138.659H289.091V157.375C289.091 158.227 289.215 158.866 289.462 159.293C289.718 159.71 290.042 159.991 290.434 160.136C290.834 160.273 291.256 160.341 291.699 160.341C292.032 160.341 292.305 160.324 292.518 160.29C292.731 160.247 292.901 160.213 293.029 160.188L293.643 162.898C293.438 162.974 293.153 163.051 292.786 163.128C292.42 163.213 291.955 163.256 291.393 163.256C290.54 163.256 289.705 163.072 288.887 162.706C288.077 162.339 287.404 161.781 286.867 161.031C286.339 160.281 286.074 159.335 286.074 158.193V138.659ZM296.743 163V143.364H299.76V163H296.743ZM298.277 140.091C297.689 140.091 297.182 139.891 296.756 139.49C296.338 139.089 296.129 138.608 296.129 138.045C296.129 137.483 296.338 137.001 296.756 136.601C297.182 136.2 297.689 136 298.277 136C298.865 136 299.368 136.2 299.786 136.601C300.212 137.001 300.425 137.483 300.425 138.045C300.425 138.608 300.212 139.089 299.786 139.49C299.368 139.891 298.865 140.091 298.277 140.091ZM312.183 163.409C310.411 163.409 308.855 162.987 307.517 162.143C306.188 161.3 305.148 160.119 304.398 158.602C303.656 157.085 303.286 155.312 303.286 153.284C303.286 151.239 303.656 149.453 304.398 147.928C305.148 146.402 306.188 145.217 307.517 144.374C308.855 143.53 310.411 143.108 312.183 143.108C313.956 143.108 315.507 143.53 316.837 144.374C318.175 145.217 319.215 146.402 319.956 147.928C320.706 149.453 321.081 151.239 321.081 153.284C321.081 155.312 320.706 157.085 319.956 158.602C319.215 160.119 318.175 161.3 316.837 162.143C315.507 162.987 313.956 163.409 312.183 163.409ZM312.183 160.699C313.53 160.699 314.638 160.354 315.507 159.663C316.376 158.973 317.02 158.065 317.438 156.94C317.855 155.815 318.064 154.597 318.064 153.284C318.064 151.972 317.855 150.749 317.438 149.615C317.02 148.482 316.376 147.565 315.507 146.866C314.638 146.168 313.53 145.818 312.183 145.818C310.837 145.818 309.729 146.168 308.859 146.866C307.99 147.565 307.347 148.482 306.929 149.615C306.511 150.749 306.303 151.972 306.303 153.284C306.303 154.597 306.511 155.815 306.929 156.94C307.347 158.065 307.99 158.973 308.859 159.663C309.729 160.354 310.837 160.699 312.183 160.699ZM327.624 151.188V163H324.606V143.364H327.521V146.432H327.777C328.237 145.435 328.936 144.634 329.874 144.028C330.811 143.415 332.021 143.108 333.504 143.108C334.834 143.108 335.997 143.381 336.994 143.926C337.991 144.463 338.767 145.281 339.321 146.381C339.875 147.472 340.152 148.852 340.152 150.523V163H337.135V150.727C337.135 149.185 336.734 147.983 335.933 147.122C335.132 146.253 334.033 145.818 332.635 145.818C331.672 145.818 330.811 146.027 330.052 146.445C329.302 146.862 328.71 147.472 328.275 148.273C327.841 149.074 327.624 150.045 327.624 151.188ZM358.494 147.761L355.784 148.528C355.613 148.077 355.362 147.638 355.03 147.212C354.706 146.777 354.263 146.419 353.7 146.138C353.138 145.857 352.417 145.716 351.54 145.716C350.338 145.716 349.336 145.993 348.535 146.547C347.743 147.092 347.346 147.787 347.346 148.631C347.346 149.381 347.619 149.973 348.165 150.408C348.71 150.842 349.562 151.205 350.721 151.494L353.636 152.21C355.392 152.636 356.7 153.288 357.561 154.166C358.422 155.036 358.852 156.156 358.852 157.528C358.852 158.653 358.528 159.659 357.881 160.545C357.241 161.432 356.346 162.131 355.196 162.642C354.045 163.153 352.707 163.409 351.182 163.409C349.179 163.409 347.521 162.974 346.209 162.105C344.896 161.236 344.065 159.966 343.716 158.295L346.579 157.58C346.852 158.636 347.368 159.429 348.126 159.957C348.893 160.486 349.895 160.75 351.131 160.75C352.537 160.75 353.653 160.452 354.48 159.855C355.315 159.25 355.733 158.526 355.733 157.682C355.733 157 355.494 156.429 355.017 155.969C354.54 155.5 353.807 155.151 352.818 154.92L349.545 154.153C347.747 153.727 346.426 153.067 345.582 152.172C344.747 151.268 344.329 150.139 344.329 148.784C344.329 147.676 344.64 146.696 345.263 145.844C345.893 144.991 346.75 144.322 347.832 143.837C348.923 143.351 350.159 143.108 351.54 143.108C353.483 143.108 355.008 143.534 356.116 144.386C357.233 145.239 358.025 146.364 358.494 147.761Z" fill="white"/>
</svg>
