<svg width="90" height="90" viewBox="0 0 90 90" fill="none" xmlns="http://www.w3.org/2000/svg">
<path d="M34.889 75H55.111C55.6024 75 56 74.6185 56 74.1471V29.9019C56 23.3388 51.0652 18 45 18C38.9348 18 34 23.3388 34 29.9019V74.1471C34 74.6185 34.3976 75 34.889 75ZM38.0562 23.2137L43.0357 28.6551H35.8542C36.0839 26.5857 36.8757 24.71 38.0562 23.2137ZM54.1458 28.6551H46.9643L51.9438 23.2137C53.1243 24.71 53.9161 26.5857 54.1458 28.6551ZM45.889 30.3608H54.2219V39.6025H45.889V30.3608ZM54.2219 41.3082V51.1487H45.889V41.3082H54.2219ZM44.111 51.1487H35.7781V41.3082H44.111V51.1487ZM35.7781 52.8545H44.111V62.6942H35.7781V52.8545ZM45.889 52.8545H54.2219V62.6942H45.889V52.8545ZM45.889 27.2437V19.7555C47.7151 19.9497 49.384 20.7375 50.7434 21.9384L45.889 27.2437ZM44.111 27.2437L39.2566 21.9384C40.616 20.7375 42.2849 19.9497 44.111 19.7555V27.2437ZM44.111 30.3608V39.6025H35.7781V30.3608H44.111ZM35.7781 64.3999H44.111V73.2943H35.7781V64.3999ZM45.889 73.2943V64.3999H54.2219V73.2943H45.889Z" fill="white"/>
<path d="M65 28C65 28.5527 65.3908 29 65.8738 29H73.1262C73.6092 29 74 28.5527 74 28C74 27.4473 73.6092 27 73.1262 27H65.8738C65.3908 27 65 27.4473 65 28Z" fill="white"/>
<path d="M73.1262 33H65.8738C65.3908 33 65 33.4473 65 34C65 34.5527 65.3908 35 65.8738 35H73.1262C73.6092 35 74 34.5527 74 34C74 33.4473 73.6092 33 73.1262 33Z" fill="white"/>
<path d="M73.1262 40H65.8738C65.3908 40 65 40.2236 65 40.5C65 40.7764 65.3908 41 65.8738 41H73.1262C73.6092 41 74 40.7764 74 40.5C74 40.2236 73.6092 40 73.1262 40Z" fill="white"/>
<path d="M73.1262 46H65.8738C65.3908 46 65 46.2236 65 46.5C65 46.7764 65.3908 47 65.8738 47H73.1262C73.6092 47 74 46.7764 74 46.5C74 46.2236 73.6092 46 73.1262 46Z" fill="white"/>
<path d="M73.1262 52H65.8738C65.3908 52 65 52.4473 65 53C65 53.5527 65.3908 54 65.8738 54H73.1262C73.6092 54 74 53.5527 74 53C74 52.4473 73.6092 52 73.1262 52Z" fill="white"/>
<path d="M73.1262 58H65.8738C65.3908 58 65 58.4473 65 59C65 59.5527 65.3908 60 65.8738 60H73.1262C73.6092 60 74 59.5527 74 59C74 58.4473 73.6092 58 73.1262 58Z" fill="white"/>
<path d="M73.1262 64H65.8738C65.3908 64 65 64.4473 65 65C65 65.5527 65.3908 66 65.8738 66H73.1262C73.6092 66 74 65.5527 74 65C74 64.4473 73.6092 64 73.1262 64Z" fill="white"/>
<path d="M73.1262 70H65.8738C65.3908 70 65 70.4473 65 71C65 71.5527 65.3908 72 65.8738 72H73.1262C73.6092 72 74 71.5527 74 71C74 70.4473 73.6092 70 73.1262 70Z" fill="white"/>
<path d="M16.8737 29H24.1263C24.6092 29 25 28.5527 25 28C25 27.4473 24.6092 27 24.1263 27H16.8737C16.3908 27 16 27.4473 16 28C16 28.5527 16.3908 29 16.8737 29Z" fill="white"/>
<path d="M24.1263 33H16.8737C16.3908 33 16 33.4473 16 34C16 34.5527 16.3908 35 16.8737 35H24.1263C24.6092 35 25 34.5527 25 34C25 33.4473 24.6092 33 24.1263 33Z" fill="white"/>
<path d="M24.1263 40H16.8737C16.3908 40 16 40.2236 16 40.5C16 40.7764 16.3908 41 16.8737 41H24.1263C24.6092 41 25 40.7764 25 40.5C25 40.2236 24.6092 40 24.1263 40Z" fill="white"/>
<path d="M24.1263 46H16.8737C16.3908 46 16 46.2236 16 46.5C16 46.7764 16.3908 47 16.8737 47H24.1263C24.6092 47 25 46.7764 25 46.5C25 46.2236 24.6092 46 24.1263 46Z" fill="white"/>
<path d="M24.1263 52H16.8737C16.3908 52 16 52.4473 16 53C16 53.5527 16.3908 54 16.8737 54H24.1263C24.6092 54 25 53.5527 25 53C25 52.4473 24.6092 52 24.1263 52Z" fill="white"/>
<path d="M24.1263 58H16.8737C16.3908 58 16 58.4473 16 59C16 59.5527 16.3908 60 16.8737 60H24.1263C24.6092 60 25 59.5527 25 59C25 58.4473 24.6092 58 24.1263 58Z" fill="white"/>
<path d="M24.1263 64H16.8737C16.3908 64 16 64.4473 16 65C16 65.5527 16.3908 66 16.8737 66H24.1263C24.6092 66 25 65.5527 25 65C25 64.4473 24.6092 64 24.1263 64Z" fill="white"/>
<path d="M24.1263 70H16.8737C16.3908 70 16 70.4473 16 71C16 71.5527 16.3908 72 16.8737 72H24.1263C24.6092 72 25 71.5527 25 71C25 70.4473 24.6092 70 24.1263 70Z" fill="white"/>
<path d="M78.15 12C70.2927 12 63.5734 16.9523 60.9409 23.8983C58.9654 16.387 51.7724 12 44.9992 12C37.2143 12 30.8702 16.9161 29.0575 23.8965C26.4245 16.9515 19.7061 12 11.85 12C11.3802 12 11 12.3802 11 12.85V79.15C11 79.6198 11.3802 80 11.85 80H78.15C78.6198 80 79 79.6198 79 79.15V12.85C79 12.3802 78.6198 12 78.15 12ZM30.2462 27.2817C30.6023 19.5388 36.9449 13.7 44.9992 13.7C53.8088 13.7 59.4185 20.6071 59.7513 27.2427V78.3H30.247L30.2462 30.4067C30.2463 30.4039 30.2479 30.4015 30.2479 30.3987C30.2479 30.3774 30.2463 30.3564 30.2462 30.3351V27.2817ZM12.7 13.7216C21.5082 14.1654 28.538 21.467 28.547 30.3818V78.3H12.7V13.7216ZM77.3 78.3H61.4513L61.4505 30.4025C61.4505 30.4012 61.4513 30.4 61.4513 30.3987C61.4513 21.4762 68.4854 14.1657 77.3 13.7216V78.3Z" fill="white"/>
</svg>
