<svg width="90" height="90" viewBox="0 0 90 90" fill="none" xmlns="http://www.w3.org/2000/svg">
<path d="M60.6184 30.8961H71.227C71.6895 30.8961 72.0645 30.5215 72.0645 30.0586C72.0645 29.5957 71.6895 29.2211 71.227 29.2211H60.6184C60.1559 29.2211 59.7809 29.5957 59.7809 30.0586C59.7809 30.5215 60.1559 30.8961 60.6184 30.8961Z" fill="white"/>
<path d="M60.6184 38.8294H71.227C71.6895 38.8294 72.0645 38.4549 72.0645 37.9919C72.0645 37.529 71.6895 37.1544 71.227 37.1544H60.6184C60.1559 37.1544 59.7809 37.529 59.7809 37.9919C59.7809 38.4549 60.1559 38.8294 60.6184 38.8294Z" fill="white"/>
<path d="M60.6184 46.762H71.227C71.6895 46.762 72.0645 46.3874 72.0645 45.9245C72.0645 45.4616 71.6895 45.087 71.227 45.087H60.6184C60.1559 45.087 59.7809 45.4616 59.7809 45.9245C59.7809 46.3874 60.1559 46.762 60.6184 46.762Z" fill="white"/>
<path d="M60.6184 54.6953H71.227C71.6895 54.6953 72.0645 54.3207 72.0645 53.8578C72.0645 53.3949 71.6895 53.0203 71.227 53.0203H60.6184C60.1559 53.0203 59.7809 53.3949 59.7809 53.8578C59.7809 54.3207 60.1559 54.6953 60.6184 54.6953Z" fill="white"/>
<path d="M60.6184 62.6287H71.227C71.6895 62.6287 72.0645 62.2541 72.0645 61.7912C72.0645 61.3283 71.6895 60.9537 71.227 60.9537H60.6184C60.1559 60.9537 59.7809 61.3283 59.7809 61.7912C59.7809 62.2541 60.1559 62.6287 60.6184 62.6287Z" fill="white"/>
<path d="M60.6184 70.562H71.227C71.6895 70.562 72.0645 70.1874 72.0645 69.7245C72.0645 69.2616 71.6895 68.887 71.227 68.887H60.6184C60.1559 68.887 59.7809 69.2616 59.7809 69.7245C59.7809 70.1874 60.1559 70.562 60.6184 70.562Z" fill="white"/>
<path d="M12.8375 70.562H37.125V78.1625C37.125 78.6254 37.5 79 37.9625 79H78.1625C78.625 79 79 78.6254 79 78.1625V21.2755C79 20.8126 78.625 20.438 78.1625 20.438H53.875V12.8375C53.875 12.3746 53.5 12 53.0375 12H12.8375C12.375 12 12 12.3746 12 12.8375V69.7245C12 70.1874 12.375 70.562 12.8375 70.562ZM49.8109 70.562L38.8 76.6918V70.562H49.8109ZM77.325 22.113V77.325H41.1069L53.4448 70.4565C53.4781 70.438 53.4984 70.4074 53.5282 70.3853C53.575 70.3504 53.6203 70.3173 53.6589 70.2736C53.6949 70.2328 53.7205 70.1883 53.7476 70.142C53.7748 70.0959 53.8011 70.052 53.8192 70.0008C53.8388 69.9456 53.8458 69.8896 53.8534 69.8314C53.8583 69.7948 53.875 69.7625 53.875 69.7245V22.113H77.325ZM13.675 13.675H52.2V68.887H13.675V13.675Z" fill="white"/>
<path d="M33.0707 25.6282C32.764 25.3812 32.3256 25.3812 32.0189 25.6282L18.327 36.6727C17.9671 36.9631 17.9107 37.4906 18.201 37.8504C18.3666 38.0557 18.6087 38.1621 18.8533 38.1621C19.0381 38.1621 19.2238 38.1015 19.3787 37.9764L21.0378 36.6382V52.995C21.0378 53.4579 21.4128 53.8325 21.8753 53.8325H43.2144C43.6769 53.8325 44.0519 53.4579 44.0519 52.995V36.6385L45.7105 37.9764C46.0704 38.2667 46.5975 38.2111 46.8883 37.8504C47.1786 37.4906 47.1222 36.9631 46.7623 36.6727L33.0707 25.6282ZM42.3769 52.1575H22.7128V35.2871L32.5448 27.3563L42.3769 35.2873V52.1575Z" fill="white"/>
</svg>
