<svg width="90" height="90" viewBox="0 0 90 90" fill="none" xmlns="http://www.w3.org/2000/svg">
<path d="M25.4716 67.6632C25.6368 67.8472 25.865 67.9404 26.0944 67.9404C26.294 67.9404 26.4943 67.8693 26.6542 67.7253L32.0066 62.9065C32.3506 62.5974 32.3784 62.0674 32.0688 61.7239C31.7601 61.3796 31.2297 61.3518 30.8862 61.6618L25.5338 66.4806C25.1899 66.7897 25.162 67.3197 25.4716 67.6632Z" fill="white"/>
<path d="M28.1464 70.6344C28.3116 70.8184 28.5398 70.9117 28.7692 70.9117C28.9688 70.9117 29.1691 70.8405 29.329 70.6966L34.6815 65.877C35.0254 65.5678 35.0532 65.0378 34.7436 64.6943C34.4349 64.3508 33.9049 64.323 33.561 64.6322L28.2086 69.4518C27.8647 69.7609 27.8368 70.2909 28.1464 70.6344Z" fill="white"/>
<path d="M11.8891 72.868L16.2004 77.6557C16.8199 78.3443 17.6709 78.7508 18.5963 78.799C18.6584 78.8023 18.7202 78.8039 18.7819 78.8039C19.6394 78.8039 20.4561 78.4915 21.0981 77.9133L23.1434 76.0718L23.6939 76.6833C24.9399 78.0679 26.6505 78.8833 28.5107 78.9806C28.6354 78.9871 28.7593 78.9904 28.8836 78.9904C30.6081 78.9904 32.2495 78.3615 33.5405 77.1993L53.3163 59.3941C54.7712 59.6695 56.2567 59.8192 57.7587 59.8192C57.7812 59.8192 57.8041 59.8192 57.8266 59.8192C58.2891 59.8175 58.6628 59.4421 58.6616 58.9792C58.6604 58.5179 58.2858 58.1442 57.8241 58.1442C57.8078 58.1532 57.7808 58.1442 57.7587 58.1442C51.4617 58.1442 45.4394 55.4649 41.2279 50.7876C33.0244 41.6767 33.7629 27.5909 42.8738 19.387C47.2873 15.4131 52.9882 13.3889 58.9147 13.707C64.8454 14.0178 70.3001 16.6202 74.274 21.0333C74.5832 21.3776 75.1131 21.4046 75.4566 21.0955C75.8005 20.7863 75.8283 20.2564 75.5188 19.9129C71.2455 15.1669 65.3803 12.369 59.0027 12.0345C52.6234 11.6951 46.4985 13.8689 41.7533 18.1422C36.0002 23.3222 33.356 30.6834 33.9358 37.8618L30.2968 41.1383L23.1664 33.2185C22.4222 32.3917 21.4007 31.905 20.29 31.8462C19.1843 31.8012 18.1129 32.1659 17.2865 32.9102C16.46 33.6544 15.9726 34.6759 15.9145 35.7866C15.8561 36.8972 16.2339 37.9645 16.9781 38.7905L24.1087 46.7097L14.1566 55.6702C12.7723 56.9166 11.9565 58.6267 11.8592 60.4865C11.7615 62.3463 12.3941 64.1333 13.6405 65.5171L14.191 66.1286L12.1463 67.9699C10.7249 69.2498 10.6095 71.4474 11.8891 72.868ZM18.2229 37.6701C17.778 37.1761 17.5523 36.5382 17.587 35.8741C17.6218 35.2108 17.913 34.5999 18.4069 34.155C18.9009 33.71 19.5376 33.4851 20.2025 33.5195C20.8662 33.5538 21.4767 33.845 21.9217 34.339L29.0522 42.2589L25.3533 45.5891L18.2229 37.6701ZM13.5317 60.574C13.6057 59.1616 14.2257 57.862 15.277 56.915L34.1887 39.8877C34.9132 44.2223 36.8308 48.4071 39.9831 51.9081C43.0443 55.3084 46.9964 57.7218 51.3267 58.9319L32.42 75.9546C31.3678 76.9008 30.0004 77.3801 28.5982 77.3081C27.1849 77.2345 25.8854 76.6146 24.9387 75.5628L14.8853 64.3967C13.9382 63.3449 13.4577 61.9873 13.5317 60.574ZM13.2667 69.2146L15.3116 67.3732L22.0228 74.8271L19.9776 76.6685C19.6214 76.9883 19.163 77.1511 18.6838 77.1265C18.2053 77.1012 17.7657 76.891 17.4451 76.5352L13.1338 71.7475C12.4722 71.0123 12.5319 69.8763 13.2667 69.2146Z" fill="white"/>
<path d="M20.7444 61.9987C20.944 61.9987 21.1443 61.9276 21.3042 61.7836L26.6567 56.9648C27.0006 56.6557 27.0284 56.1257 26.7188 55.7822C26.4101 55.4379 25.8801 55.4109 25.5362 55.7201L20.1838 60.5388C19.8399 60.848 19.8121 61.378 20.1216 61.7215C20.2868 61.9055 20.515 61.9987 20.7444 61.9987Z" fill="white"/>
<path d="M22.7968 64.6927C22.962 64.8768 23.1902 64.97 23.4196 64.97C23.6191 64.97 23.8195 64.8988 23.9794 64.7549L29.3318 59.9353C29.6758 59.6261 29.7036 59.0962 29.394 58.7527C29.0857 58.4084 28.5549 58.3806 28.2114 58.6905L22.859 63.5101C22.515 63.8193 22.4872 64.3492 22.7968 64.6927Z" fill="white"/>
<path d="M58.5205 31.5346C57.351 31.4708 56.2297 31.8707 55.3595 32.6542C53.5644 34.2703 53.4184 37.0461 55.0349 38.8421C55.8184 39.7123 56.893 40.2242 58.0617 40.2856C58.1402 40.2897 58.2183 40.2921 58.296 40.2921C59.3801 40.2921 60.4114 39.8963 61.2227 39.1659C62.0925 38.3833 62.6049 37.3078 62.6662 36.1391C62.7276 34.9704 62.3301 33.8483 61.547 32.9789C60.7643 32.1087 59.6893 31.5959 58.5205 31.5346ZM60.1023 37.9212C59.5653 38.4045 58.8771 38.6523 58.1492 38.6131C57.4275 38.5755 56.7634 38.2581 56.2796 37.7216C55.2814 36.6118 55.371 34.8976 56.48 33.899C56.9813 33.4475 57.6185 33.2038 58.2879 33.2038C58.3361 33.2038 58.3844 33.2054 58.433 33.2079C59.1548 33.2455 59.8185 33.562 60.3022 34.0993C60.786 34.6367 61.0313 35.3302 60.9937 36.0516C60.9557 36.7737 60.6392 37.4378 60.1023 37.9212Z" fill="white"/>
<path d="M76.4082 33.0942C76.8589 33.0002 77.1488 32.5601 77.058 32.1095C76.5685 29.6813 75.6223 27.4003 74.2462 25.3295C73.9915 24.9476 73.475 24.8421 73.091 25.0915C71.9591 25.8309 70.4432 25.6722 69.4859 24.7153C68.5286 23.7576 68.3708 22.2413 69.1105 21.1086C69.362 20.7234 69.2557 20.2073 68.8725 19.953C66.807 18.5814 64.5257 17.6368 62.0917 17.1461C61.6382 17.0512 61.2011 17.3448 61.1066 17.7946C60.8281 19.1179 59.6443 20.0781 58.2912 20.0781C56.9368 20.0781 55.7526 19.1171 55.4749 17.793C55.3804 17.3432 54.9392 17.0512 54.4902 17.1436C52.0636 17.6319 49.7826 18.5781 47.7106 19.9546C47.3274 20.2089 47.2211 20.725 47.4726 21.1094C48.2111 22.2421 48.0525 23.7584 47.096 24.7153C46.1387 25.6722 44.6216 25.8292 43.4893 25.0907C43.1053 24.8388 42.5888 24.9459 42.3336 25.3287C40.9617 27.3954 40.0175 29.6772 39.5268 32.1103C39.436 32.561 39.7259 33.001 40.1757 33.095C41.4986 33.3731 42.4588 34.5565 42.4588 35.9101C42.4588 37.2644 41.4978 38.4487 40.1737 38.7268C39.7235 38.8208 39.4335 39.2608 39.5243 39.7114C40.0134 42.138 40.9592 44.419 42.3357 46.4914C42.59 46.8734 43.1057 46.9781 43.4909 46.7294C44.6224 45.9909 46.1387 46.1488 47.096 47.1048C48.0533 48.0625 48.2111 49.5797 47.4714 50.7116C47.2199 51.0968 47.3262 51.6128 47.7094 51.8672C49.7749 53.2387 52.0563 54.1833 54.4906 54.6749C54.9392 54.764 55.3812 54.4761 55.4757 54.0263C55.7538 52.7022 56.9376 51.7421 58.2912 51.7421C59.6455 51.7421 60.8298 52.703 61.107 54.0279C61.1896 54.4222 61.5376 54.6937 61.9261 54.6937C61.9809 54.6937 62.0365 54.6888 62.0925 54.6773C64.5199 54.1874 66.8005 53.242 68.8717 51.8655C69.2549 51.6112 69.3612 51.0951 69.1097 50.7099C68.3712 49.578 68.5294 48.0617 69.4859 47.1048C70.4432 46.1479 71.9603 45.9901 73.0926 46.7294C73.4779 46.9822 73.9943 46.875 74.2483 46.4914C75.6198 44.4255 76.5644 42.1437 77.0556 39.7114C77.1463 39.26 76.8568 38.8208 76.4066 38.7259C75.0837 38.4479 74.1231 37.2636 74.1231 35.9101C74.1231 34.5557 75.0841 33.3715 76.4082 33.0942ZM75.2493 40.1122C74.8298 41.815 74.1612 43.4302 73.2546 44.931C71.587 44.2481 69.6123 44.6104 68.3017 45.9206C66.9919 47.2308 66.6283 49.2034 67.3117 50.8719C65.8084 51.7821 64.1936 52.4519 62.4941 52.8715C61.7981 51.2064 60.1452 50.0671 58.2912 50.0671C56.4383 50.0671 54.7863 51.2055 54.0894 52.8691C52.3855 52.4487 50.7698 51.7797 49.2703 50.8735C49.954 49.2051 49.5909 47.2316 48.2802 45.9206C46.9709 44.612 44.9982 44.2481 43.329 44.931C42.4191 43.4269 41.7493 41.8125 41.3305 40.113C42.9949 39.417 44.1337 37.7641 44.1337 35.9101C44.1337 34.0568 42.9961 32.4048 41.3326 31.7088C41.7521 30.0052 42.4207 28.3899 43.3273 26.8892C44.9958 27.5729 46.97 27.2106 48.2802 25.8996C49.59 24.5902 49.9536 22.6167 49.2707 20.9483C50.7743 20.038 52.3895 19.3682 54.0882 18.9495C54.7842 20.6138 56.4371 21.7531 58.2912 21.7531C60.1436 21.7531 61.7957 20.6154 62.4925 18.9519C64.1965 19.3715 65.8117 20.0397 67.3117 20.9466C66.6275 22.6151 66.9911 24.5894 68.3017 25.8996C69.6115 27.2106 71.5849 27.5729 73.2529 26.89C74.1624 28.3932 74.8326 30.0076 75.2518 31.7071C73.587 32.4031 72.4482 34.056 72.4482 35.9101C72.4482 37.7625 73.5862 39.4154 75.2493 40.1122Z" fill="white"/>
</svg>
