<svg width="90" height="90" viewBox="0 0 90 90" fill="none" xmlns="http://www.w3.org/2000/svg">
<path d="M75.561 22.6569H71.3662L71.3772 21.2124H71.7758C73.0225 21.2124 74.0368 20.1976 74.0368 18.9505V14.2619C74.0368 13.0147 73.0225 12 71.7758 12H17.9677C16.721 12 15.7067 13.0147 15.7067 14.2619V18.9505C15.7067 20.1976 16.721 21.2124 17.9677 21.2124H18.6329V22.6569H14.439C13.0941 22.6569 12 23.8614 12 25.3418V30.554C12 31.7066 12.6666 32.6835 13.595 33.0634C13.6602 35.3001 14.2222 42.6877 18.6329 49.4879V68.9098C17.73 69.2067 17.0718 70.0482 17.0718 71.0495V75.7381C17.0718 76.9853 18.0861 78 19.3328 78H70.6668C71.9139 78 72.9282 76.9853 72.9282 75.7381V71.0495C72.9282 69.9204 72.0944 68.9901 71.0116 68.8225L71.162 49.2304C75.472 42.5011 76.2519 35.2289 76.3872 33.0694C77.3247 32.6948 78 31.7138 78 30.554V25.3418C78 23.8614 76.9059 22.6569 75.561 22.6569ZM75.561 24.3069C75.989 24.3069 76.3506 24.7807 76.3506 25.3418V30.554C76.3506 31.1152 75.989 31.5889 75.561 31.5889H71.2975L71.3535 24.3069H75.561ZM17.356 18.9505V14.2619C17.356 13.9243 17.6303 13.65 17.9677 13.65H71.7758C72.1132 13.65 72.3874 13.9243 72.3874 14.2619V18.9505C72.3874 19.288 72.1132 19.5624 71.7758 19.5624H17.9677C17.6303 19.5624 17.356 19.288 17.356 18.9505ZM52.1298 32.3309C49.6594 32.3309 47.6496 34.3415 47.6496 36.8124V45.943C47.6496 47.5044 46.38 48.7749 44.8192 48.7749C43.2584 48.7749 41.9884 47.5044 41.9884 45.943V32.563C41.9884 30.0916 39.9786 28.0811 37.5081 28.0811C35.0381 28.0811 33.0283 30.0916 33.0283 32.563V38.6296C33.0283 40.191 31.7583 41.4615 30.1975 41.4615C28.6367 41.4615 27.3667 40.191 27.3667 38.6296V21.2124H62.2713V39.2242C62.2713 40.7856 61.0013 42.0557 59.4405 42.0557C57.8797 42.0557 56.6101 40.7856 56.6101 39.2242V36.8124C56.6101 34.3415 54.6003 32.3309 52.1298 32.3309ZM25.7173 21.2124V38.6296C25.7173 41.101 27.7271 43.1115 30.1975 43.1115C32.6679 43.1115 34.6777 41.101 34.6777 38.6296V32.563C34.6777 31.0016 35.9474 29.7311 37.5081 29.7311C39.0689 29.7311 40.339 31.0016 40.339 32.563V45.943C40.339 48.4144 42.3488 50.4249 44.8192 50.4249C47.2892 50.4249 49.299 48.4144 49.299 45.943V36.8124C49.299 35.2511 50.5691 33.9809 52.1298 33.9809C53.6906 33.9809 54.9607 35.2511 54.9607 36.8124V39.2242C54.9607 41.6952 56.9705 43.7057 59.4405 43.7057C61.9109 43.7057 63.9207 41.6952 63.9207 39.2242V21.2124H69.7278L69.5156 48.8369C64.3929 56.5008 56.1723 60.395 45.0141 60.395C35.6482 60.395 28.2904 57.7396 23.1446 52.5027C22.0424 51.3811 21.0987 50.1897 20.2823 48.9704V21.2124H25.7173ZM13.6494 25.3418C13.6494 24.7807 14.011 24.3069 14.439 24.3069H18.6329V31.5889H14.439C14.011 31.5889 13.6494 31.1152 13.6494 30.554V25.3418ZM15.258 33.2389H18.6329V46.1469C15.8685 40.6798 15.3521 35.2439 15.258 33.2389ZM71.2789 71.0495V75.7381C71.2789 76.0757 71.0042 76.35 70.6668 76.35H19.3328C18.9954 76.35 18.7211 76.0757 18.7211 75.7381V71.0495C18.7211 70.712 18.9954 70.4376 19.3328 70.4376H70.1743H70.1808H70.6668C71.0042 70.4376 71.2789 70.712 71.2789 71.0495ZM69.3624 68.7876H20.2823V51.7605C20.8006 52.4023 21.3543 53.0337 21.9559 53.6468C27.4238 59.2196 35.1819 62.045 45.0141 62.045C57.4496 62.045 64.9568 57.2806 69.4945 51.5743L69.3624 68.7876ZM71.2849 33.2389H74.7276C74.59 35.24 73.9628 40.5953 71.1868 46.0065L71.2849 33.2389Z" fill="white"/>
</svg>
