<svg width="90" height="90" viewBox="0 0 90 90" fill="none" xmlns="http://www.w3.org/2000/svg">
<path d="M37.9422 76.8242C38.9333 78.8199 41.0823 80 43.3266 80C44.1456 80 44.9782 79.8423 45.7708 79.5099L58.1813 74.3043C61.1452 73.061 62.4561 69.8331 61.1033 67.1089L60.6405 66.1768L79.9395 18.7529C80.0283 18.5358 80.019 18.2948 79.9139 18.0834C79.8093 17.8723 79.6174 17.7078 79.3808 17.6266L57.313 10.0553C56.8202 9.88693 56.2726 10.1159 56.0886 10.5684L45.6952 36.0774L33.2473 11.0076C33.0283 10.5675 32.4631 10.3744 31.9861 10.5748L10.557 19.5634C10.3274 19.6595 10.1484 19.8359 10.0601 20.0534C9.97178 20.2709 9.98108 20.5114 10.0861 20.7225L37.9422 76.8242ZM46.9292 42.7773L27.2322 51.0398L20.1179 36.7118L39.8151 28.4497L46.9292 42.7773ZM54.8339 58.6971L35.1366 66.9592L28.0226 52.6317L47.7196 44.3692L54.8339 58.6971ZM57.3911 72.7123L44.9805 77.918C42.9705 78.7601 40.5905 77.9436 39.6743 76.0979L35.9271 68.5511L55.6243 60.2889L59.3713 67.8353C60.288 69.6818 59.3997 71.8698 57.3911 72.7123ZM52.3159 49.4113L63.8239 53.3595L59.5235 63.9271L52.3159 49.4113ZM57.538 12.0006L77.8226 18.9601L71.7924 33.7782L51.5013 26.8169L57.538 12.0006ZM50.8335 28.456L71.1253 35.4174L64.4911 51.7202L51.1978 47.1595L46.812 38.3265L50.8335 28.456ZM31.9103 12.5299L39.0246 26.8578L19.3275 35.1199L12.2133 20.7921L31.9103 12.5299Z" fill="white"/>
<path d="M49.9852 66.4441C48.9532 66.0904 47.8329 66.1271 46.8321 66.5471C45.8303 66.9671 45.0666 67.7208 44.6812 68.6693C44.2963 69.6173 44.3358 70.6466 44.7933 71.5673C45.2502 72.4881 46.0702 73.19 47.1022 73.5442C47.5717 73.7053 48.0593 73.7852 48.5455 73.7852C49.1284 73.7852 49.7095 73.6703 50.2552 73.4413C51.257 73.0213 52.0207 72.2676 52.4061 71.3191C52.791 70.371 52.7515 69.3418 52.2941 68.421C51.8371 67.5003 51.0171 66.7983 49.9852 66.4441ZM50.622 70.7073C50.4151 71.2174 50.0038 71.6233 49.465 71.8493C48.9262 72.0745 48.3219 72.0946 47.7678 71.9044C47.2128 71.7143 46.7712 71.3362 46.5253 70.841C46.2794 70.3454 46.258 69.7912 46.4653 69.2811C46.6722 68.771 47.0836 68.3651 47.6223 68.139C47.9161 68.016 48.229 67.954 48.5427 67.954C48.8044 67.954 49.0671 67.9972 49.3195 68.0839C49.8745 68.2741 50.3161 68.6522 50.562 69.1474C50.8079 69.643 50.8293 70.1971 50.622 70.7073Z" fill="white"/>
</svg>
