<svg width="90" height="90" viewBox="0 0 90 90" fill="none" xmlns="http://www.w3.org/2000/svg">
<path d="M12.8375 78H78.1625C78.6248 78 79 77.6256 79 77.1625V11.8375C79 11.3744 78.6248 11 78.1625 11H12.8375C12.3752 11 12 11.3744 12 11.8375V77.1625C12 77.6256 12.3752 78 12.8375 78ZM45.8861 45.3375H60.2417L45.8861 59.6931V45.3375ZM44.2111 59.1948L30.3538 45.3375H44.2111V59.1948ZM45.8861 43.6625V29.4669L60.0809 43.6625H45.8861ZM44.2111 43.6625H30.5138L44.2102 29.9652L44.2111 43.6625ZM28.9979 46.35L43.5821 60.9343L28.9979 75.5177L14.4137 60.9343L28.9979 46.35ZM13.675 59.3045V45.3375H27.642L13.675 59.3045ZM44.2111 62.6737V76.325H30.559L44.2111 62.6737ZM45.8861 62.1754L60.0357 76.325H45.8861V62.1754ZM47.0134 60.9343L61.5976 46.35L76.181 60.9343L61.5976 75.5177L47.0134 60.9343ZM62.9535 45.3375H77.325V59.7098L62.9535 45.3375ZM77.325 43.6625H63.1135L77.325 29.4501V43.6625ZM61.5976 42.8099L47.0134 28.2257L61.5976 13.6423L76.181 28.2257L61.5976 42.8099ZM45.8861 26.9845V12.675H60.1964L45.8861 26.9845ZM44.2111 26.4871L30.399 12.675H44.2111V26.4871ZM43.5813 28.2257L28.9979 42.8099L14.4137 28.2257L28.9979 13.6423L43.5813 28.2257ZM27.4812 43.6625H13.675V29.8555L27.4812 43.6625ZM13.675 62.564L27.4368 76.325H13.675V62.564ZM63.1587 76.325L77.325 62.1587V76.325H63.1587ZM77.325 27.0013L62.9987 12.675H77.325V27.0013ZM27.5968 12.675L13.675 26.5968V12.675H27.5968Z" fill="white"/>
</svg>
