<svg width="90" height="90" viewBox="0 0 90 90" fill="none" xmlns="http://www.w3.org/2000/svg">
<path d="M40.6778 56.3751H48.3226C48.7714 56.3751 49.1354 56.0117 49.1354 55.5626V53.9587C63.2096 53.701 74.1759 42.3556 74.277 27.8718H76.1872C76.6361 27.8718 77 27.5084 77 27.0593V19.454C77 19.0049 76.6361 18.6415 76.1872 18.6415H74.2818V13.8125C74.2818 13.3634 73.9178 13 73.469 13H58.8633C58.4145 13 58.0505 13.3634 58.0505 13.8125V18.6415H55.9947C55.5458 18.6415 55.1819 19.0049 55.1819 19.454V27.0593C55.1819 27.5084 55.5458 27.8718 55.9947 27.8718H58.0505V28.1288C58.0505 33.4189 54.7325 36.6664 49.1354 36.9525V35.4858C49.1354 35.0367 48.7714 34.6733 48.3226 34.6733H40.6778C40.229 34.6733 39.865 35.0367 39.865 35.4858V37.0413C25.7908 37.299 14.8245 48.6444 14.7234 63.1282H12.8128C12.3639 63.1282 12 63.4916 12 63.9407V71.546C12 71.9951 12.3639 72.3585 12.8128 72.3585H14.7186V77.1875C14.7186 77.6366 15.0826 78 15.5314 78H30.1371C30.5859 78 30.9499 77.6366 30.9499 77.1875V72.3585H33.0053C33.4542 72.3585 33.8181 71.9951 33.8181 71.546V63.9407C33.8181 63.4916 33.4542 63.1282 33.0053 63.1282H30.9499V62.8712C30.9499 57.5811 34.2679 54.3336 39.865 54.0475V55.5626C39.865 56.0117 40.229 56.3751 40.6778 56.3751ZM41.4906 46.3363H47.5097V49.6831H41.4906V46.3363ZM47.5097 44.7113H41.4906V41.3653H47.5097V44.7113ZM41.4906 54.7501V51.3081H47.5097V54.7501H41.4906ZM75.3744 26.2468H72.0176V20.2665H75.3744V26.2468ZM65.3531 20.2665V26.2468H61.9403V20.2665H65.3531ZM66.9788 20.2665H70.3919V26.2468H66.9788V20.2665ZM59.6761 14.625H72.6561V18.6415H59.6761V14.625ZM56.8075 20.2665H60.3147V26.2468H56.8075V20.2665ZM59.6761 28.1288V27.8718H72.6514C72.5506 41.4436 62.298 52.0759 49.1354 52.3337V38.576C55.6563 38.2727 59.6761 34.3354 59.6761 28.1288ZM47.5097 36.2983V39.7403H41.4906V36.2983H47.5097ZM13.6256 64.7532H16.9828V70.7335H13.6256V64.7532ZM23.6469 70.7335V64.7532H27.0597V70.7335H23.6469ZM22.0212 70.7335H18.6085V64.7532H22.0212V70.7335ZM29.3243 76.375H16.3443V72.3585H29.3243V76.375ZM32.1925 70.7335H28.6853V64.7532H32.1925V70.7335ZM29.3243 62.8712V63.1282H16.349C16.4498 49.5564 26.7024 38.9241 39.865 38.6663V52.424C33.3441 52.7273 29.3243 56.6646 29.3243 62.8712Z" fill="white"/>
</svg>
