<svg width="90" height="90" viewBox="0 0 90 90" fill="none" xmlns="http://www.w3.org/2000/svg">
<path d="M26.1088 31H17.8912C17.3991 31 17 31.4064 17 31.9087V40.0913C17 40.5936 17.3991 41 17.8912 41H26.1088C26.6009 41 27 40.5936 27 40.0913V31.9087C27 31.4064 26.6009 31 26.1088 31ZM25.2175 39.1826H18.7825V32.8174H25.2175V39.1826Z" fill="white"/>
<path d="M26.1088 46H17.8912C17.3991 46 17 46.3658 17 46.8178V54.1822C17 54.6342 17.3991 55 17.8912 55H26.1088C26.6009 55 27 54.6342 27 54.1822V46.8178C27 46.3658 26.6009 46 26.1088 46ZM25.2175 53.3644H18.7825V47.6356H25.2175V53.3644Z" fill="white"/>
<path d="M40.1088 31H31.8912C31.3991 31 31 31.4064 31 31.9087V40.0913C31 40.5936 31.3991 41 31.8912 41H40.1088C40.6009 41 41 40.5936 41 40.0913V31.9087C41 31.4064 40.6009 31 40.1088 31ZM39.2175 39.1826H32.7825V32.8174H39.2175V39.1826Z" fill="white"/>
<path d="M40.1088 46H31.8912C31.3991 46 31 46.3658 31 46.8178V54.1822C31 54.6342 31.3991 55 31.8912 55H40.1088C40.6009 55 41 54.6342 41 54.1822V46.8178C41 46.3658 40.6009 46 40.1088 46ZM39.2175 53.3644H32.7825V47.6356H39.2175V53.3644Z" fill="white"/>
<path d="M53.1979 31H45.8021C45.3592 31 45 31.4064 45 31.9087V40.0913C45 40.5936 45.3592 41 45.8021 41H53.1979C53.6408 41 54 40.5936 54 40.0913V31.9087C54 31.4064 53.6408 31 53.1979 31ZM52.3958 39.1826H46.6042V32.8174H52.3958V39.1826Z" fill="white"/>
<path d="M53.1979 46H45.8021C45.3592 46 45 46.3658 45 46.8178V54.1822C45 54.6342 45.3592 55 45.8021 55H53.1979C53.6408 55 54 54.6342 54 54.1822V46.8178C54 46.3658 53.6408 46 53.1979 46ZM52.3958 53.3644H46.6042V47.6356H52.3958V53.3644Z" fill="white"/>
<path d="M11.8646 79H60.1354C60.6129 79 61 78.6142 61 78.1375V14.5264C61 14.0497 60.6129 13.6639 60.1354 13.6639H53.9807V10.8625C53.9807 10.3858 53.5936 10 53.1161 10C52.6387 10 52.2515 10.3858 52.2515 10.8625V13.6639H42.5701V10.8625C42.5701 10.3858 42.183 10 41.7055 10C41.2281 10 40.8409 10.3858 40.8409 10.8625V13.6639H31.1595V10.8625C31.1595 10.3858 30.7724 10 30.2949 10C29.8174 10 29.4303 10.3858 29.4303 10.8625V13.6639H19.7489V10.8625C19.7489 10.3858 19.3618 10 18.8843 10C18.4068 10 18.0197 10.3858 18.0197 10.8625V13.6639H11.8646C11.3871 13.6639 11 14.0497 11 14.5264V78.1375C11 78.6142 11.3871 79 11.8646 79ZM12.7292 15.3889H18.0197V17.8947C16.3589 18.2871 15.1157 19.7704 15.1157 21.5452C15.1157 23.6181 16.8064 25.3043 18.8843 25.3043C20.9622 25.3043 22.6529 23.6181 22.6529 21.5452C22.6529 19.7703 21.4097 18.287 19.7489 17.8947V15.3889H29.4303V17.8947C27.7695 18.2871 26.5263 19.7704 26.5263 21.5452C26.5263 23.6181 28.217 25.3043 30.2949 25.3043C32.3728 25.3043 34.0635 23.6181 34.0635 21.5452C34.0635 19.7703 32.8203 18.287 31.1595 17.8947V15.3889H40.8409V17.8947C39.1801 18.2871 37.9369 19.7704 37.9369 21.5452C37.9369 23.6181 39.6276 25.3043 41.7055 25.3043C43.7834 25.3043 45.4742 23.6181 45.4742 21.5452C45.4742 19.7703 44.2309 18.287 42.5701 17.8947V15.3889H52.2515V17.8947C50.5908 18.2871 49.3475 19.7704 49.3475 21.5452C49.3475 23.6181 51.0382 25.3043 53.1161 25.3043C55.194 25.3043 56.8848 23.6181 56.8848 21.5452C56.8848 19.7703 55.6416 18.287 53.9807 17.8947V15.3889H59.2708V77.275H12.7292V15.3889ZM18.8843 19.5102C20.0089 19.5102 20.9238 20.4233 20.9238 21.5452C20.9238 22.6671 20.0089 23.5793 18.8843 23.5793C17.7597 23.5793 16.8448 22.6671 16.8448 21.5452C16.8448 20.4233 17.7597 19.5102 18.8843 19.5102ZM30.2949 19.5102C31.4195 19.5102 32.3344 20.4233 32.3344 21.5452C32.3344 22.6671 31.4195 23.5793 30.2949 23.5793C29.1703 23.5793 28.2554 22.6671 28.2554 21.5452C28.2554 20.4233 29.1703 19.5102 30.2949 19.5102ZM41.7055 19.5102C42.8302 19.5102 43.745 20.4233 43.745 21.5452C43.745 22.6671 42.8302 23.5793 41.7055 23.5793C40.5809 23.5793 39.6661 22.6671 39.6661 21.5452C39.6661 20.4233 40.5809 19.5102 41.7055 19.5102ZM53.1161 19.5102C54.2408 19.5102 55.1556 20.4233 55.1556 21.5452C55.1556 22.6671 54.2408 23.5793 53.1161 23.5793C51.9915 23.5793 51.0767 22.6671 51.0767 21.5452C51.0767 20.4233 51.9915 19.5102 53.1161 19.5102Z" fill="white"/>
<path d="M75.5487 79C78.0031 79 80 76.8766 80 74.2664V23.9988C80 23.8733 79.9734 23.7486 79.9218 23.6349L74.2077 11.0032C74.1847 10.9526 74.1573 10.9046 74.1258 10.86C73.7395 10.3133 73.1468 10 72.5 10C71.8532 10 71.2605 10.3133 70.8742 10.86C70.8427 10.9046 70.8153 10.9526 70.7923 11.0032L65.0782 23.6349C65.0266 23.7486 65 23.8733 65 23.9988V74.2664C65 76.8766 66.9969 79 69.4513 79H75.5487ZM69.3412 18.3016H75.6588L78.0162 23.5128H66.9838L69.3412 18.3016ZM78.3222 25.2378V63.331H66.6778V25.2378H78.3222ZM66.6778 65.056H78.3222V69.7281H66.6778V65.056ZM72.2702 11.8269C72.4373 11.6517 72.5627 11.6517 72.7298 11.8269L74.8785 16.5766H70.1215L72.2702 11.8269ZM66.6778 74.2664V71.4531H78.3222V74.2664C78.3222 75.9257 77.0782 77.275 75.5487 77.275H69.4513C67.9218 77.275 66.6778 75.9257 66.6778 74.2664Z" fill="white"/>
</svg>
