<svg width="90" height="90" viewBox="0 0 90 90" fill="none" xmlns="http://www.w3.org/2000/svg">
<path d="M60.7335 78H67.8421C72.3402 78 76.0001 74.3501 76.0001 69.8639V33.8199C76.0001 33.8149 75.9973 33.8107 75.9972 33.8056C75.9971 33.8003 75.9999 33.7959 75.9997 33.7906L75.9766 33.1633C75.9477 28.7224 72.301 25.1093 67.8477 25.1093H24.8542V13.8125C24.8542 13.3638 24.4904 13 24.0417 13H18.0273C14.1525 13 11.0001 16.1441 11.0001 20.009L11.0001 20.1158C11.0001 20.1157 11.0001 20.1159 11.0001 20.1158C11.0001 20.1162 11.0001 20.1168 11.0001 20.1172L11.0235 65.0587C11.0437 68.1727 12.8469 70.9603 15.5997 72.2943L11.2409 76.6103C11.0068 76.8419 10.9358 77.1919 11.0612 77.4966C11.1865 77.8012 11.4833 78 11.8126 78H53.1485C53.5972 78 53.961 77.6362 53.961 77.1875V73.1131H59.921V77.1875C59.921 77.6362 60.2848 78 60.7335 78ZM74.3751 69.8639C74.3751 73.4543 71.4444 76.375 67.8421 76.375H61.546V41.9556H67.8421C70.5117 41.9556 72.8857 40.6702 74.3751 38.6874V69.8639ZM18.0273 14.625H23.2292V25.1093H17.6183C14.8654 25.1093 12.6257 22.8699 12.6251 20.1172L12.6251 20.0086C12.6251 17.0399 15.0487 14.625 18.0273 14.625ZM52.336 76.375H13.7879L19.0477 71.1668L19.9554 72.0745C20.1141 72.2332 20.322 72.3125 20.5299 72.3125C20.7378 72.3125 20.9456 72.2332 21.1043 72.0745C21.4217 71.7571 21.4217 71.2429 21.1043 70.9255L20.2024 70.0236L22.9858 67.2675L23.8743 68.156C24.033 68.3147 24.2409 68.394 24.4488 68.394C24.6566 68.394 24.8645 68.3147 25.0232 68.156C25.3406 67.8386 25.3406 67.3244 25.0232 67.007L24.1404 66.1242L26.9238 63.3682L27.7928 64.2371C27.9515 64.3958 28.1594 64.4751 28.3672 64.4751C28.5751 64.4751 28.783 64.3958 28.9417 64.2371C29.2591 63.9197 29.2591 63.4055 28.9417 63.0882L28.0784 62.2249L30.8617 59.469L31.7113 60.3186C31.87 60.4773 32.0778 60.5566 32.2857 60.5566C32.4936 60.5566 32.7015 60.4773 32.8602 60.3186C33.1776 60.0012 33.1776 59.4871 32.8602 59.1697L32.0163 58.3257L34.7997 55.5697L35.6302 56.4001C35.7888 56.5588 35.9967 56.6382 36.2046 56.6382C36.4125 56.6382 36.6204 56.5588 36.7791 56.4001C37.0965 56.0827 37.0965 55.5686 36.7791 55.2512L35.9543 54.4264L38.7377 51.6703L39.5486 52.4812C39.7073 52.6399 39.9152 52.7193 40.1231 52.7193C40.331 52.7193 40.5389 52.6399 40.6976 52.4812C41.015 52.1638 41.015 51.6497 40.6976 51.3323L39.8924 50.5271L42.6756 47.7712L43.4671 48.5627C43.6258 48.7214 43.8337 48.8008 44.0416 48.8008C44.2495 48.8008 44.4574 48.7214 44.6161 48.5627C44.9334 48.2454 44.9334 47.7312 44.6161 47.4138L43.8302 46.6279L46.6136 43.8719L47.386 44.6443C47.5447 44.8029 47.7526 44.8823 47.9605 44.8823C48.1684 44.8823 48.3762 44.8029 48.5349 44.6443C48.8523 44.3269 48.8523 43.8127 48.5349 43.4953L47.7682 42.7286L52.336 38.2057V76.375ZM53.961 71.4881V36.2578C53.961 35.9301 53.7638 35.6342 53.4611 35.508C53.16 35.3822 52.8101 35.4497 52.5768 35.6806L16.8514 71.0549C14.3489 70.1093 12.6662 67.7348 12.6485 65.0532L12.6274 24.4489C13.8417 25.8458 15.6265 26.7343 17.6183 26.7343H67.8477C71.4107 26.7343 74.3286 29.6229 74.352 33.1978L74.3747 33.8275C74.3705 37.4139 71.4418 40.3306 67.8421 40.3306H60.7335C60.2848 40.3306 59.921 40.6944 59.921 41.1431V71.4881H53.961Z" fill="white"/>
<path d="M45.0692 58.4183C43.8572 57.914 42.525 58.1723 41.5922 59.0967L35.0153 65.609C34.0774 66.5377 33.8068 67.8731 34.3091 69.0938C34.811 70.3146 35.9428 71.0727 37.2627 71.0727H43.8397C45.6008 71.0727 47.0338 69.6397 47.0338 67.8787V61.3664C47.0338 60.0532 46.2808 58.9237 45.0692 58.4183ZM45.4088 67.8787C45.4088 68.7439 44.705 69.4477 43.8397 69.4477H37.2627C36.6046 69.4477 36.0622 69.0843 35.8119 68.4753C35.5612 67.8668 35.6909 67.2268 36.1587 66.7635L42.7356 60.2512C43.0423 59.9477 43.4243 59.7902 43.8219 59.7902C44.0278 59.7902 44.2376 59.8322 44.4435 59.9179C45.0482 60.1702 45.4088 60.7118 45.4088 61.3664V67.8787Z" fill="white"/>
</svg>
