<svg width="90" height="90" viewBox="0 0 90 90" fill="none" xmlns="http://www.w3.org/2000/svg">
<path d="M10.2156 41.1991C10.5332 41.5631 11.0862 41.6016 11.4502 41.284L13.9474 39.107V79.125C13.9474 79.6089 14.3394 80 14.8224 80H75.1779C75.6609 80 76.0529 79.6089 76.0529 79.125V39.107L78.5501 41.284C78.7155 41.4283 78.9211 41.4992 79.125 41.4992C79.3691 41.4992 79.6124 41.3977 79.7847 41.1991C80.1024 40.8351 80.0639 40.2821 79.6999 39.9645L45.575 10.2152C45.2451 9.92825 44.7543 9.92825 44.4253 10.2152L10.3004 39.9645C9.93556 40.2821 9.89793 40.8351 10.2156 41.1991ZM45.0001 12.0361L74.3029 37.5811V78.25H15.6974V37.5811L45.0001 12.0361Z" fill="white"/>
<path d="M32.474 53.2041C33.0183 54.0698 33.9424 54.5867 34.9452 54.5867H42.5935V57.5644H42.365C41.9047 57.5644 41.5248 57.9345 41.5006 58.4069L40.8733 70.7465C40.8733 73.0926 42.7293 75 45.0111 75C47.2928 75 49.1488 73.0917 49.1471 70.6994L48.5206 58.4069C48.4964 57.9345 48.1166 57.5644 47.6562 57.5644H47.4287V54.5867H55.0518C56.059 54.5867 56.9848 54.0662 57.5291 53.1961C58.0725 52.3251 58.1478 51.2424 57.7437 50.3358L47.6389 24.8131C47.1405 23.6939 46.0892 23 44.8925 23C44.8891 23 44.8847 23 44.8813 23C43.6803 23.0044 42.6281 23.7073 42.1219 24.8692L32.2594 50.3207C31.8493 51.2602 31.9289 52.3385 32.474 53.2041ZM45.0119 73.2207C43.6846 73.2207 42.6047 72.1104 42.6039 70.7928L43.1871 59.3428H46.8368L47.4191 70.7456C47.4183 72.1104 46.3384 73.2207 45.0119 73.2207ZM44.324 57.5635V47.3652C44.324 46.9756 44.6321 46.6588 45.0111 46.6588C45.3901 46.6588 45.6981 46.9756 45.6981 47.3652V57.5635H44.324ZM33.8533 51.0138L43.7149 25.5622C43.9286 25.0738 44.3664 24.7811 44.8873 24.7793C45.3823 24.7553 45.8478 25.0667 46.0503 25.5186L56.1559 51.0413C56.3315 51.4346 56.3013 51.8705 56.0737 52.2344C55.8461 52.5982 55.474 52.8082 55.0527 52.8082H47.4295V47.367C47.4295 45.996 46.3453 44.8813 45.0119 44.8813C43.6785 44.8813 42.5943 45.996 42.5943 47.367V52.8082H34.9461C34.5265 52.8082 34.1552 52.6009 33.9277 52.2379C33.6984 51.8758 33.6664 51.4417 33.8533 51.0138Z" fill="white"/>
</svg>
